<?xml version="1.0" standalone="no"?>
<!DOCTYPE svg PUBLIC "-//W3C//DTD SVG 20010904//EN"
 "http://www.w3.org/TR/2001/REC-SVG-20010904/DTD/svg10.dtd">
<svg version="1.0" xmlns="http://www.w3.org/2000/svg"
 width="256.000000pt" height="256.000000pt" viewBox="0 0 256.000000 256.000000"
 preserveAspectRatio="xMidYMid meet">
<metadata>
Created by potrace 1.11, written by Peter Selinger 2001-2013
</metadata>
<g transform="translate(0.000000,256.000000) scale(0.100000,-0.100000)"
fill="#000000" stroke="none">
<path d="M1135 2549 c-22 -5 -58 -14 -80 -21 -22 -6 -42 -12 -45 -13 -5 -2
-35 -14 -80 -34 -106 -46 -246 -170 -318 -280 -95 -146 -132 -284 -128 -470 3
-105 8 -139 30 -204 34 -100 73 -177 128 -252 118 -161 149 -259 153 -473 2
-164 10 -185 83 -212 38 -14 40 -17 22 -28 -29 -18 -36 -59 -16 -92 15 -26 15
-30 -1 -59 -17 -30 -17 -32 0 -62 16 -29 16 -34 2 -55 -21 -33 -19 -58 8 -90
18 -20 34 -27 62 -28 38 -2 38 -2 62 -70 12 -38 24 -70 25 -72 2 -1 28 -5 58
-9 30 -3 69 -10 86 -14 31 -9 160 -7 200 2 12 3 45 8 75 12 30 4 57 12 62 18
4 7 15 38 25 69 10 35 23 59 32 59 8 1 22 3 30 4 8 1 21 3 28 4 43 5 66 76 38
117 -12 17 -12 22 0 39 19 25 18 70 -2 89 -14 14 -14 18 0 38 24 34 20 72 -11
103 -16 16 -23 25 -16 21 17 -10 70 19 90 50 13 20 17 54 19 152 2 146 21 237
66 331 28 57 71 125 89 141 33 29 104 165 134 255 48 145 49 337 3 479 -89
274 -316 485 -587 546 -88 19 -254 24 -326 9z"/>
</g>
</svg>
